<svg width="261" height="262" viewBox="0 0 261 262" fill="none" xmlns="http://www.w3.org/2000/svg">
<g style="mix-blend-mode:screen" opacity="0.8">
<path opacity="0.38" d="M261 132.408L153.271 129.615L257.849 104.07L243.4 67.1515L148.155 119.235L225.377 42.9819L194.088 18.5909L140.476 109.986L170.011 8.14923L130.877 2L128.521 109.718L102.553 5.02994L65.6898 19.3289L118.169 114.795L41.5992 37.2561L17.3365 68.4451L108.943 122.436L6.99015 92.4826L1 131.592L108.735 134.389L4.151 159.93L18.5969 196.852L113.851 144.761L36.6226 221.018L67.9117 245.413L121.524 154.025L91.9893 255.851L131.127 262L133.479 154.282L159.45 258.97L196.31 244.675L143.831 149.201L220.404 226.744L244.667 195.555L153.057 141.568L255.007 171.521L261 132.408Z" fill="url(#paint0_radial_18089_379659)"/>
<path opacity="0.38" d="M260 109.971L150.898 124.243L251.911 80.6191L231.395 46.213L147.066 112.722L212.531 27.5804L177.874 7.48931L135.889 108.103L150.03 0H109.97L124.245 109.106L80.6212 8.08738L46.2124 28.6068L112.722 112.934L27.5799 47.4709L7.48826 82.1239L108.11 124.116L0 109.971V150.033L109.112 135.761L8.08889 179.381L28.6016 213.791L112.931 147.286L47.4692 232.42L82.126 252.515L124.111 151.897L109.97 260H150.03L135.758 150.894L179.379 251.913L213.791 231.397L147.278 147.07L232.42 212.533L252.515 177.876L151.897 135.892L260 150.033V109.971Z" fill="url(#paint1_radial_18089_379659)"/>
</g>
<defs>
<radialGradient id="paint0_radial_18089_379659" cx="0" cy="0" r="1" gradientUnits="userSpaceOnUse" gradientTransform="translate(131.308 124.013) scale(132.449 129.293)">
<stop offset="0.8" stop-color="#A526A8"/>
<stop offset="1" stop-opacity="0"/>
</radialGradient>
<radialGradient id="paint1_radial_18089_379659" cx="0" cy="0" r="1" gradientUnits="userSpaceOnUse" gradientTransform="translate(130.306 130.898) scale(130.397 125.824)">
<stop stop-color="#A51F94"/>
<stop offset="0.46" stop-color="#FF96E8"/>
<stop offset="1" stop-opacity="0"/>
</radialGradient>
</defs>
</svg>
